<svg width="18" height="18" viewBox="0 0 18 18" fill="none" xmlns="http://www.w3.org/2000/svg">
<path d="M16.2549 13.915C15.7727 13.4852 15.3506 12.9924 14.9999 12.45C14.617 11.7013 14.3875 10.8836 14.3249 10.045V7.575C14.3282 6.2578 13.8504 4.98473 12.9813 3.99498C12.1121 3.00523 10.9115 2.36693 9.6049 2.2V1.555C9.6049 1.37796 9.53458 1.20818 9.4094 1.083C9.28422 0.957823 9.11444 0.887497 8.9374 0.887497C8.76037 0.887497 8.59059 0.957823 8.46541 1.083C8.34023 1.20818 8.2699 1.37796 8.2699 1.555V2.21C6.97503 2.38896 5.78889 3.03112 4.93117 4.01755C4.07345 5.00398 3.60227 6.26782 3.6049 7.575V10.045C3.54228 10.8836 3.31279 11.7013 2.9299 12.45C2.58534 12.9912 2.17 13.4839 1.6949 13.915C1.64157 13.9619 1.59882 14.0195 1.56951 14.0842C1.5402 14.1488 1.52499 14.219 1.5249 14.29V14.97C1.5249 15.1026 1.57758 15.2298 1.67135 15.3235C1.76512 15.4173 1.89229 15.47 2.0249 15.47H15.9249C16.0575 15.47 16.1847 15.4173 16.2785 15.3235C16.3722 15.2298 16.4249 15.1026 16.4249 14.97V14.29C16.4248 14.219 16.4096 14.1488 16.3803 14.0842C16.351 14.0195 16.3082 13.9619 16.2549 13.915ZM2.5649 14.47C3.03011 14.0206 3.4397 13.517 3.7849 12.97C4.26721 12.0657 4.54862 11.068 4.6099 10.045V7.575C4.59007 6.98901 4.68836 6.40503 4.89893 5.85783C5.10949 5.31063 5.42801 4.81139 5.83553 4.38985C6.24304 3.96831 6.73122 3.63308 7.27099 3.40413C7.81076 3.17519 8.39109 3.0572 8.9774 3.0572C9.56372 3.0572 10.144 3.17519 10.6838 3.40413C11.2236 3.63308 11.7118 3.96831 12.1193 4.38985C12.5268 4.81139 12.8453 5.31063 13.0559 5.85783C13.2664 6.40503 13.3647 6.98901 13.3449 7.575V10.045C13.4062 11.068 13.6876 12.0657 14.1699 12.97C14.5151 13.517 14.9247 14.0206 15.3899 14.47H2.5649Z" fill="white"/>
<path d="M8.99991 17.14C9.31488 17.1327 9.61713 17.0143 9.85321 16.8057C10.0893 16.5971 10.244 16.3117 10.2899 16H7.65991C7.70715 16.3202 7.86907 16.6123 8.11556 16.822C8.36205 17.0317 8.67632 17.1447 8.99991 17.14Z" fill="white"/>
</svg>
