<svg width="30" height="31" viewBox="0 0 30 31" fill="none" xmlns="http://www.w3.org/2000/svg">
<path fill-rule="evenodd" clip-rule="evenodd" d="M0.605334 0.0963303C-0.00598096 0.362582 -0.198314 1.19513 0.232999 1.7078C0.524108 2.05371 0.704241 2.09227 2.02832 2.09227H3.22388L4.12323 10.6552C4.6179 15.3649 5.05143 19.3503 5.08666 19.5117C5.26072 20.3093 5.88463 21.1258 6.61814 21.516C7.43008 21.9479 6.90997 21.9258 16.2666 21.9258C25.6036 21.9258 25.1066 21.9464 25.8982 21.5245C26.106 21.4137 26.4355 21.156 26.6303 20.9518C27.2988 20.2509 27.2481 20.4293 28.6933 13.6913C29.4364 10.2265 30 7.45331 30 7.26183C30 6.52355 29.5236 5.77543 28.8396 5.43956L28.4668 5.25649L17.0686 5.23947L5.67044 5.22244L5.63619 5.01112C5.61727 4.89493 5.51158 3.91904 5.40132 2.84255C5.291 1.76606 5.18433 0.826581 5.1643 0.754815C5.09905 0.521837 4.80475 0.188582 4.58182 0.0954822C4.27596 -0.0323264 0.899052 -0.0316087 0.605334 0.0963303ZM27.8849 7.49102C26.5349 13.9059 25.3539 19.2384 25.2532 19.3732C25.1863 19.4629 25.0504 19.5969 24.9513 19.6709C24.7719 19.8049 24.7381 19.8055 16.4413 19.8241C11.8599 19.8344 8.01536 19.8257 7.89799 19.8046C7.64296 19.7589 7.2748 19.4522 7.17485 19.2022C7.13531 19.1034 6.8382 16.483 6.5146 13.3791C6.19101 10.2752 5.91014 7.64023 5.89044 7.52365L5.85462 7.31161H16.8886H27.9226L27.8849 7.49102ZM8.60802 24.1166C6.95381 24.5615 5.93036 26.2743 6.35189 27.8926C6.78836 29.5684 8.4986 30.6021 10.1311 30.1768C11.802 29.7416 12.8404 28.0298 12.4179 26.4074C11.9774 24.7164 10.247 23.6759 8.60802 24.1166ZM21.1344 24.1166C19.4802 24.5615 18.4568 26.2743 18.8783 27.8926C19.3148 29.5684 21.025 30.6021 22.6576 30.1768C24.3284 29.7416 25.3669 28.0298 24.9443 26.4074C24.5038 24.7164 22.7734 23.6759 21.1344 24.1166ZM9.79653 26.1902C10.4668 26.4703 10.6302 27.3491 10.109 27.8705C9.68574 28.2936 9.08148 28.2936 8.65825 27.8705C7.85147 27.0636 8.7417 25.7495 9.79653 26.1902ZM22.3229 26.1902C22.9932 26.4703 23.1567 27.3491 22.6354 27.8705C21.9024 28.6034 20.7012 27.9469 20.8941 26.9186C21.0094 26.3045 21.7242 25.94 22.3229 26.1902Z" fill="white"/>
</svg>
