<svg width="20" height="20" viewBox="0 0 20 20" fill="none" xmlns="http://www.w3.org/2000/svg">
<path d="M3.50236 14.8669C3.50236 14.8429 3.50616 14.8201 3.50936 14.7969V9.41208H3.50956L3.50936 9.41028C3.50936 9.34365 3.52248 9.27768 3.54799 9.21613C3.57349 9.15458 3.61087 9.09866 3.65798 9.05156C3.7051 9.00446 3.76104 8.9671 3.8226 8.94163C3.88416 8.91615 3.95013 8.90305 4.01676 8.90308C4.02616 8.90308 4.03476 8.90528 4.04396 8.90588H5.00376V8.90948C5.13495 8.9131 5.2596 8.96754 5.35143 9.06131C5.44326 9.15507 5.49508 9.28084 5.49596 9.41208H5.49756V14.9125H5.48896C5.47755 15.0347 5.42199 15.1485 5.33268 15.2327C5.24337 15.3169 5.12643 15.3657 5.00376 15.3699V15.3743H4.00956C3.72956 15.3743 3.50236 15.1471 3.50236 14.8669Z" fill="#9C9C9C"/>
<path d="M6.50196 15.7109V8.41228L6.50176 8.41048C6.50176 8.34386 6.51488 8.27789 6.54038 8.21634C6.56589 8.15479 6.60326 8.09887 6.65038 8.05177C6.6975 8.00467 6.75344 7.96731 6.815 7.94183C6.87656 7.91636 6.94253 7.90326 7.00916 7.90328C7.01836 7.90328 7.02716 7.90548 7.03636 7.90608H9.02276C9.05231 7.85878 9.0884 7.81589 9.12996 7.77868L11.106 4.35568L11.111 4.35868C11.309 4.00808 11.6806 3.77148 12.107 3.77148C12.7412 3.77148 13.2554 4.29308 13.2554 4.93648H13.267V7.90588H16.0038V7.90948C16.1349 7.91311 16.2596 7.96755 16.3514 8.06131C16.4433 8.15508 16.4951 8.28085 16.496 8.41208H16.4976V14.0425H16.4964C16.4964 14.1071 16.4716 14.1717 16.4228 14.2213L16.4234 14.2219L14.4706 16.1747L14.4658 16.1699C14.4096 16.2161 14.3406 16.2335 14.2724 16.2243H7.05176C7.03716 16.2255 7.02316 16.2287 7.00836 16.2287C6.87862 16.2285 6.75392 16.1785 6.66001 16.0889C6.5661 15.9994 6.51017 15.8773 6.50376 15.7477H6.50216V15.7321C6.50216 15.7285 6.50116 15.7251 6.50116 15.7215C6.50116 15.7179 6.50176 15.7145 6.50196 15.7109ZM15.899 14.0425L15.8906 14.0519L15.9 14.0425H15.899Z" fill="#9C9C9C"/>
</svg>
