<svg width="42" height="42" viewBox="0 0 42 42" fill="none" xmlns="http://www.w3.org/2000/svg">
<g filter="url(#filter0_d_1207_1747)">
<circle cx="21" cy="17" r="17" fill="#246DCE"/>
<path fill-rule="evenodd" clip-rule="evenodd" d="M20.642 8.03584C20.4541 8.09026 13.4873 12.2857 13.3396 12.4334C13.2663 12.5067 13.1626 12.6598 13.1092 12.7738L13.0121 12.9808L13.0022 17.6328C12.9953 20.8842 13.0045 22.3435 13.0327 22.4799C13.1729 23.1563 13.7667 23.7356 14.4491 23.8617C14.5831 23.8865 15.2792 23.8967 16.3567 23.8897L18.0533 23.8787L18.2869 23.7521C18.5463 23.6114 18.658 23.4959 18.806 23.2155L18.9059 23.0262L18.9244 21.1291C18.9424 19.2858 18.9451 19.2291 19.0194 19.1297C19.0614 19.0734 19.1418 18.993 19.1981 18.951C19.298 18.8764 19.3413 18.8746 21.0002 18.8746C22.659 18.8746 22.7023 18.8764 22.8022 18.951C22.8585 18.993 22.939 19.0734 22.981 19.1297C23.0553 19.2291 23.058 19.2858 23.076 21.1291C23.0943 23.0056 23.0954 23.028 23.1782 23.1941C23.3098 23.4582 23.4594 23.6143 23.7126 23.7516L23.9471 23.8787L25.6437 23.8897C26.7212 23.8967 27.4172 23.8865 27.5513 23.8617C28.2464 23.7332 28.8457 23.1368 28.9706 22.4494C28.9948 22.316 29.0045 20.6102 28.9981 17.6121L28.9883 12.9808L28.8926 12.7769C28.84 12.6648 28.7399 12.5134 28.6702 12.4403C28.5197 12.2827 21.5493 8.09152 21.3418 8.03388C21.1761 7.98787 20.8041 7.98891 20.642 8.03584Z" fill="white"/>
</g>
<defs>
<filter id="filter0_d_1207_1747" x="0" y="0" width="42" height="42" filterUnits="userSpaceOnUse" color-interpolation-filters="sRGB">
<feFlood flood-opacity="0" result="BackgroundImageFix"/>
<feColorMatrix in="SourceAlpha" type="matrix" values="0 0 0 0 0 0 0 0 0 0 0 0 0 0 0 0 0 0 127 0" result="hardAlpha"/>
<feOffset dy="4"/>
<feGaussianBlur stdDeviation="2"/>
<feComposite in2="hardAlpha" operator="out"/>
<feColorMatrix type="matrix" values="0 0 0 0 0 0 0 0 0 0 0 0 0 0 0 0 0 0 0.25 0"/>
<feBlend mode="normal" in2="BackgroundImageFix" result="effect1_dropShadow_1207_1747"/>
<feBlend mode="normal" in="SourceGraphic" in2="effect1_dropShadow_1207_1747" result="shape"/>
</filter>
</defs>
</svg>
