<svg width="15" height="15" viewBox="0 0 15 15" fill="none" xmlns="http://www.w3.org/2000/svg">
<path d="M13.125 4.6875V13.125H4.6875V4.6875H13.125ZM13.5938 3.75H4.21875C4.09443 3.75 3.9752 3.79939 3.88729 3.88729C3.79939 3.9752 3.75 4.09443 3.75 4.21875V13.5938C3.75 13.7181 3.79939 13.8373 3.88729 13.9252C3.9752 14.0131 4.09443 14.0625 4.21875 14.0625H13.5938C13.7181 14.0625 13.8373 14.0131 13.9252 13.9252C14.0131 13.8373 14.0625 13.7181 14.0625 13.5938V4.21875C14.0625 4.09443 14.0131 3.9752 13.9252 3.88729C13.8373 3.79939 13.7181 3.75 13.5938 3.75ZM0.9375 1.40625V11.7188C0.9375 11.8431 0.986886 11.9623 1.07479 12.0502C1.1627 12.1381 1.28193 12.1875 1.40625 12.1875H2.8125V11.25H1.875V1.875H9.375V2.8125H10.3125V1.40625C10.3125 1.28193 10.2631 1.1627 10.1752 1.07479C10.0873 0.986886 9.96807 0.9375 9.84375 0.9375H1.40625C1.28193 0.9375 1.1627 0.986886 1.07479 1.07479C0.986886 1.1627 0.9375 1.28193 0.9375 1.40625ZM11.25 9.84375H6.5625V10.7812H11.25V9.84375ZM11.25 7.03125H6.5625V7.96875H11.25V7.03125Z" fill="#093893"/>
</svg>
