<svg width="13" height="15" viewBox="0 0 13 15" fill="none" xmlns="http://www.w3.org/2000/svg">
<path d="M12.49 11.6699C12.1639 10.8672 11.6906 10.1381 11.0966 9.52315C10.5044 8.90644 9.80293 8.41473 9.03083 8.07519C9.02392 8.0716 9.017 8.0698 9.01009 8.06621C10.0871 7.25779 10.7872 5.94097 10.7872 4.45528C10.7872 1.9941 8.86833 0 6.5 0C4.13166 0 2.21279 1.9941 2.21279 4.45528C2.21279 5.94097 2.91292 7.25779 3.98991 8.068C3.983 8.07159 3.97608 8.07339 3.96917 8.07698C3.1947 8.41652 2.49976 8.90337 1.90336 9.52495C1.3099 10.1404 0.836747 10.8694 0.510013 11.6717C0.18903 12.4573 0.0159161 13.2994 4.32282e-05 14.1527C-0.000418174 14.1719 0.00281802 14.1909 0.00956122 14.2088C0.0163044 14.2266 0.0264181 14.2429 0.0393064 14.2566C0.0521947 14.2704 0.0675968 14.2813 0.0846052 14.2887C0.101614 14.2962 0.119884 14.3 0.13834 14.3H1.17557C1.25163 14.3 1.31214 14.2371 1.31386 14.1599C1.34844 12.773 1.88434 11.4741 2.83167 10.4897C3.81185 9.47106 5.11357 8.91055 6.5 8.91055C7.88643 8.91055 9.18815 9.47106 10.1683 10.4897C11.1157 11.4741 11.6516 12.773 11.6861 14.1599C11.6879 14.2389 11.7484 14.3 11.8244 14.3H12.8617C12.8801 14.3 12.8984 14.2962 12.9154 14.2887C12.9324 14.2813 12.9478 14.2704 12.9607 14.2566C12.9736 14.2429 12.9837 14.2266 12.9904 14.2088C12.9972 14.1909 13.0004 14.1719 13 14.1527C12.9827 13.294 12.8115 12.4586 12.49 11.6699ZM6.5 7.54523C5.70652 7.54523 4.95972 7.22366 4.39789 6.6398C3.83605 6.05594 3.52662 5.27986 3.52662 4.45528C3.52662 3.63069 3.83605 2.85461 4.39789 2.27075C4.95972 1.6869 5.70652 1.36533 6.5 1.36533C7.29348 1.36533 8.04028 1.6869 8.60211 2.27075C9.16394 2.85461 9.47338 3.63069 9.47338 4.45528C9.47338 5.27986 9.16394 6.05594 8.60211 6.6398C8.04028 7.22366 7.29348 7.54523 6.5 7.54523Z" fill="#246DCE"/>
</svg>
