<svg width="15" height="15" viewBox="0 0 15 15" fill="none" xmlns="http://www.w3.org/2000/svg">
<path d="M1.17051 11.9083V11.9082C1.1706 11.8348 1.18631 11.7623 1.2166 11.6955L1.30768 11.7368L1.2166 11.6955C1.24677 11.629 1.29072 11.5696 1.34553 11.5213C1.73345 11.1692 2.07274 10.767 2.35445 10.3253C2.66561 9.71543 2.85237 9.04978 2.90384 8.36708V6.31258V6.31249H3.00384C3.00165 5.22318 3.39429 4.16998 4.10906 3.34796C4.82383 2.52593 5.81228 1.9908 6.89134 1.84166L1.17051 11.9083ZM1.17051 11.9083V12.475C1.17051 12.612 1.22494 12.7434 1.32184 12.8403C1.41873 12.9372 1.55015 12.9917 1.68717 12.9917H13.2705C13.4075 12.9917 13.539 12.9372 13.6358 12.8403C13.7327 12.7434 13.7872 12.612 13.7872 12.475V11.9083V11.9082C13.7871 11.8348 13.7714 11.7623 13.7411 11.6955L13.65 11.7368L13.7411 11.6955C13.7108 11.6287 13.6666 11.5691 13.6115 11.5207L13.5455 11.5958L13.6121 11.5212C13.2182 11.1701 12.8733 10.7678 12.5864 10.325C12.2753 9.7152 12.0886 9.04967 12.0372 8.36709M1.17051 11.9083L12.0372 8.36709M12.0372 6.31275C12.0372 6.31266 12.0372 6.31258 12.0372 6.31249C12.0399 5.19055 11.6329 4.10621 10.8926 3.26317C10.1717 2.44216 9.18292 1.90504 8.10384 1.74614V1.29583C8.10384 1.12178 8.0347 0.95486 7.91163 0.831789C7.78856 0.708719 7.62164 0.639578 7.44759 0.639578C7.27354 0.639578 7.10662 0.708719 6.98355 0.83179C6.86048 0.95486 6.79134 1.12178 6.79134 1.29583V1.75537L11.9372 6.31249L12.0372 6.31275ZM12.0372 6.31275L12.0372 8.36709M12.0372 6.31275L12.0372 8.36709M11.7234 10.8617C11.9721 11.2558 12.2603 11.6232 12.5834 11.9583H2.37841C2.70153 11.6232 2.98973 11.2558 3.23841 10.8617L3.23864 10.8618L3.24208 10.8554C3.65077 10.0891 3.88923 9.24369 3.94116 8.37681L3.94134 8.37682V8.37083V6.31249H3.9414L3.94128 6.30911C3.92521 5.8342 4.00487 5.36092 4.17552 4.91744C4.34617 4.47395 4.60432 4.06935 4.93459 3.72771C5.26486 3.38607 5.66051 3.11439 6.09797 2.92884C6.53542 2.74329 7.00574 2.64766 7.48093 2.64766C7.95611 2.64766 8.42643 2.74329 8.86389 2.92884C9.30134 3.11439 9.69699 3.38607 10.0273 3.72771C10.3575 4.06935 10.6157 4.47395 10.7863 4.91744C10.957 5.36092 11.0366 5.8342 11.0206 6.30911L11.0205 6.30911V6.31249V8.37083H11.0203L11.0207 8.37681C11.0726 9.24369 11.3111 10.0891 11.7198 10.8554L11.7195 10.8555L11.7234 10.8617Z" fill="#FF5722" stroke="#FF5722" stroke-width="0.2"/>
<path d="M7.5019 14.3833L7.50276 14.3833C7.78882 14.3767 8.06334 14.2692 8.27776 14.0797C8.49217 13.8902 8.63267 13.631 8.67439 13.3479L8.69127 13.2333H8.57546H6.38379H6.26795L6.28486 13.3479C6.32776 13.6387 6.47483 13.904 6.6987 14.0945C6.92257 14.2849 7.20801 14.3876 7.5019 14.3833Z" fill="#FF5722" stroke="#FF5722" stroke-width="0.2"/>
</svg>
