<svg width="25" height="25" viewBox="0 0 25 25" fill="none" xmlns="http://www.w3.org/2000/svg">
<circle cx="12.5" cy="12.5002" r="10.4167" fill="#0077B5"/>
<path fill-rule="evenodd" clip-rule="evenodd" d="M9.77852 7.43952C9.77852 8.08801 9.28475 8.61281 8.51259 8.61281C7.7705 8.61281 7.27674 8.08801 7.29202 7.43952C7.27674 6.75952 7.77049 6.25 8.52738 6.25C9.28474 6.25 9.76372 6.75952 9.77852 7.43952ZM7.3541 17.0933V9.53969H9.70163V17.0928H7.3541V17.0933Z" fill="white"/>
<path fill-rule="evenodd" clip-rule="evenodd" d="M11.5832 11.9502C11.5832 11.0081 11.5522 10.2049 11.5211 9.54061H13.5602L13.6686 10.5754H13.7149C14.0239 10.0965 14.7961 9.37109 16.0472 9.37109C17.5915 9.37109 18.75 10.3906 18.75 12.614V17.0942H16.4025V12.9082C16.4025 11.9345 16.0629 11.2707 15.2134 11.2707C14.5644 11.2707 14.1786 11.7186 14.0244 12.1508C13.9623 12.3055 13.9317 12.5214 13.9317 12.7381V17.0942H11.5842V11.9502H11.5832Z" fill="white"/>
</svg>
