<svg width="15" height="15" viewBox="0 0 15 15" fill="none" xmlns="http://www.w3.org/2000/svg">
<path d="M7.47507 13.7043H1.86875C1.5249 13.7043 1.24585 13.4252 1.24585 13.0814V1.86878C1.24585 1.52493 1.52493 1.24588 1.86875 1.24588H7.47507C7.81955 1.24588 8.09798 0.967438 8.09798 0.622967C8.09798 0.278495 7.81955 0 7.47507 0H1.86875C0.838445 0 0 0.838474 0 1.86878V13.0814C0 14.1117 0.838445 14.9501 1.86875 14.9501H7.47507C7.81955 14.9501 8.09798 14.6717 8.09798 14.3272C8.09798 13.9827 7.81955 13.7043 7.47507 13.7043Z" fill="#FF5722"/>
<path d="M14.8143 7.03186L11.027 3.29433C10.7828 3.05263 10.3879 3.05576 10.1462 3.30057C9.90447 3.54537 9.90696 3.93967 10.1524 4.18137L12.859 6.85245H5.60631C5.26183 6.85245 4.9834 7.13089 4.9834 7.47536C4.9834 7.81983 5.26183 8.09829 5.60631 8.09829H12.859L10.1524 10.7694C9.90699 11.0111 9.90511 11.4054 10.1462 11.6502C10.2682 11.7735 10.429 11.8358 10.5897 11.8358C10.7479 11.8358 10.9061 11.776 11.027 11.6564L14.8143 7.91885C14.9327 7.80175 15 7.64226 15 7.47533C15 7.30845 14.9333 7.14961 14.8143 7.03186Z" fill="#FF5722"/>
</svg>
