<svg width="150" height="49" viewBox="0 0 150 49" fill="none" xmlns="http://www.w3.org/2000/svg">
<path d="M141.197 17.6067C146.059 17.6067 150 13.6653 150 8.80333C150 3.94138 146.059 0 141.197 0C136.335 0 132.394 3.94138 132.394 8.80333C132.394 13.6653 136.335 17.6067 141.197 17.6067Z" fill="#246DCE"/>
<path d="M141.197 16.637C140.451 16.637 139.854 16.0402 139.854 15.2941V1.86534C139.854 1.1193 140.451 0.522461 141.197 0.522461C141.943 0.522461 142.54 1.1193 142.54 1.86534V15.2941C142.54 16.0402 141.943 16.637 141.197 16.637Z" fill="white"/>
<path d="M149.254 8.57945C149.254 9.3255 148.657 9.92233 147.911 9.92233H134.483C133.736 9.92233 133.14 9.3255 133.14 8.57945C133.14 7.83341 133.736 7.23657 134.483 7.23657H147.911C148.657 7.23657 149.254 7.83341 149.254 8.57945Z" fill="white"/>
<path d="M0 2.64429V32.6574H6.28133V23.1938H11.8971C18.22 23.1938 22.6086 19.0756 22.6086 12.9191C22.6086 6.74171 18.3656 2.64429 12.2091 2.64429H0ZM6.28133 7.61528H10.5452C14.1434 7.61528 16.2233 9.5288 16.2233 12.9399C16.2233 16.3717 14.1226 18.2852 10.5244 18.2852H6.28133V7.61528Z" fill="#246DCE"/>
<path d="M32.9666 28.6224C30.9075 28.6224 29.5347 27.5824 29.5347 25.9185C29.5347 24.3378 30.8243 23.3186 33.0914 23.1522L37.792 22.861V24.4834C37.792 26.8961 35.6081 28.6224 32.9666 28.6224ZM30.9699 33.011C33.757 33.011 36.5233 31.6175 37.7712 29.2464H37.896V32.6574H43.7613V17.3285C43.7613 12.8359 40.0383 9.88238 34.3185 9.88238C28.4116 9.88238 24.7302 12.8567 24.5014 17.1829H30.0547C30.3459 15.5397 31.7811 14.4166 34.0482 14.4166C36.3361 14.4166 37.792 15.6229 37.792 17.7029V19.1796L32.1762 19.5124C26.6229 19.8452 23.503 22.1955 23.503 26.2513C23.503 30.2655 26.7269 33.011 30.9699 33.011Z" fill="#246DCE"/>
<path d="M55.9704 33.011C59.2567 33.011 61.8358 31.2847 62.9173 28.8304H63.0213V32.6574H69.0115V2.64429H62.9381V14.1878H62.8133C61.7318 11.7127 59.2359 10.0072 56.012 10.0072C50.4171 10.0072 46.8812 14.3958 46.8812 21.4675C46.8812 28.6016 50.3963 33.011 55.9704 33.011ZM58.0295 14.8742C61.0454 14.8742 62.9797 17.4533 62.9797 21.5091C62.9797 25.5857 61.0454 28.1232 58.0295 28.1232C54.9721 28.1232 53.1002 25.6065 53.1002 21.5091C53.1002 17.4325 54.9721 14.8742 58.0295 14.8742Z" fill="#246DCE"/>
<path d="M73.0673 32.6574H79.1406V19.2004C79.1406 16.7045 80.7006 14.9574 83.0093 14.9574C85.2556 14.9574 86.6075 16.3717 86.6075 18.7636V32.6574H92.4521V19.1172C92.4521 16.6421 93.9704 14.9574 96.2791 14.9574C98.6294 14.9574 99.919 16.3717 99.919 18.9508V32.6574H105.992V17.4325C105.992 12.9399 103.06 9.94478 98.6918 9.94478C95.4264 9.94478 92.7641 11.7127 91.7657 14.5206H91.6409C90.8922 11.6087 88.6459 9.94478 85.422 9.94478C82.3853 9.94478 79.9934 11.7127 79.0575 14.3958H78.9327V10.3608H73.0673V32.6574Z" fill="#246DCE"/>
<path d="M118.451 28.6224C116.392 28.6224 115.019 27.5824 115.019 25.9185C115.019 24.3378 116.309 23.3186 118.576 23.1522L123.276 22.861V24.4834C123.276 26.8961 121.092 28.6224 118.451 28.6224ZM116.454 33.011C119.241 33.011 122.008 31.6175 123.256 29.2464H123.38V32.6574H129.246V17.3285C129.246 12.8359 125.523 9.88238 119.803 9.88238C113.896 9.88238 110.215 12.8567 109.986 17.1829H115.539C115.83 15.5397 117.265 14.4166 119.533 14.4166C121.82 14.4166 123.276 15.6229 123.276 17.7029V19.1796L117.661 19.5124C112.107 19.8452 108.987 22.1955 108.987 26.2513C108.987 30.2655 112.211 33.011 116.454 33.011Z" fill="#246DCE"/>
<path d="M25.8877 46.9811C27.5464 46.9811 28.6592 46.1543 29.0023 44.6724H28.056C27.7856 45.5876 26.9952 46.1179 25.8929 46.1179C24.4109 46.1179 23.4698 44.9428 23.4698 43.1021C23.4698 41.277 24.4213 40.0914 25.8877 40.0914C26.9588 40.0914 27.8168 40.7362 28.056 41.7189H29.0023C28.7631 40.2214 27.5204 39.2282 25.8877 39.2282C23.8338 39.2282 22.5078 40.7466 22.5078 43.1021C22.5078 45.4784 23.8182 46.9811 25.8877 46.9811Z" fill="#246DCE"/>
<path d="M30.389 46.8563H31.2938V43.7052C31.2938 42.7693 31.8502 42.1557 32.7497 42.1557C33.5973 42.1557 34.0289 42.6705 34.0289 43.5285V46.8563H34.9336V43.3621C34.9336 42.1557 34.2161 41.3549 33.0305 41.3549C32.2089 41.3549 31.6162 41.7085 31.3146 42.3117H31.2938V39.353H30.389V46.8563Z" fill="#246DCE"/>
<path d="M38.239 46.1803C37.589 46.1803 37.1575 45.8424 37.1575 45.3276C37.1575 44.818 37.5734 44.4956 38.3014 44.4488L39.747 44.3604V44.8024C39.747 45.5824 39.0918 46.1803 38.239 46.1803ZM38.0362 46.9499C38.7642 46.9499 39.4506 46.5443 39.773 45.9256H39.7938V46.8563H40.6517V43.1177C40.6517 42.0413 39.851 41.3549 38.5822 41.3549C37.3031 41.3549 36.5023 42.0725 36.4399 43.0085H37.3135C37.4279 42.4781 37.8646 42.1505 38.5614 42.1505C39.3102 42.1505 39.747 42.5457 39.747 43.2061V43.6585L38.1974 43.7468C36.9495 43.8196 36.2371 44.402 36.2371 45.3276C36.2371 46.2999 36.9599 46.9499 38.0362 46.9499ZM36.8403 39.1086C36.8403 40.055 37.4851 40.7206 38.5146 40.7206C39.5442 40.7206 40.1889 40.055 40.1889 39.1086H39.5338C39.5338 39.743 39.1074 40.159 38.5146 40.159C37.9218 40.159 37.4955 39.743 37.4955 39.1086H36.8403Z" fill="#246DCE"/>
<path d="M42.1736 46.8563H43.0784V43.4661C43.0784 42.7173 43.5983 42.1557 44.3159 42.1557C44.9867 42.1557 45.4235 42.5821 45.4235 43.2321V46.8563H46.3282V43.4193C46.3282 42.6861 46.8326 42.1557 47.5502 42.1557C48.2625 42.1557 48.6733 42.5925 48.6733 43.3309V46.8563H49.5781V43.1229C49.5781 42.0517 48.8865 41.3549 47.8154 41.3549C47.0562 41.3549 46.4218 41.7397 46.1202 42.3845H46.0994C45.8654 41.7293 45.3195 41.3549 44.5811 41.3549C43.8531 41.3549 43.3019 41.7397 43.0472 42.3117H43.0264V41.4485H42.1736V46.8563Z" fill="#246DCE"/>
<path d="M53.5682 42.9409C53.5682 43.6792 54.0362 44.168 54.9877 44.4124L55.9393 44.6568C56.5477 44.818 56.7712 45.026 56.7712 45.4108C56.7712 45.8996 56.3189 46.2115 55.5857 46.2115C54.8525 46.2115 54.4261 45.91 54.3273 45.3484H53.4226C53.5162 46.3051 54.3429 46.9499 55.5285 46.9499C56.792 46.9499 57.6812 46.2843 57.6812 45.3432C57.6812 44.5476 57.286 44.1524 56.1941 43.8768L55.3569 43.674C54.7433 43.5181 54.4573 43.2685 54.4573 42.8941C54.4573 42.4209 54.8941 42.0933 55.5545 42.0933C56.2201 42.0933 56.6413 42.4157 56.7036 42.9357H57.5668C57.5252 42.0205 56.7036 41.3549 55.5857 41.3549C54.3949 41.3549 53.5682 42.0153 53.5682 42.9409Z" fill="#246DCE"/>
<path d="M61.2362 46.9499C62.7285 46.9499 63.7373 45.8736 63.7373 44.1524C63.7373 42.4261 62.7285 41.3549 61.2362 41.3549C59.7387 41.3549 58.7299 42.4261 58.7299 44.1524C58.7299 45.8736 59.7387 46.9499 61.2362 46.9499ZM61.2362 46.1543C60.2794 46.1543 59.6503 45.4264 59.6503 44.1524C59.6503 42.8785 60.2794 42.1505 61.2362 42.1505C62.193 42.1505 62.8169 42.8785 62.8169 44.1524C62.8169 45.4264 62.193 46.1543 61.2362 46.1543ZM61.647 40.6686L62.9261 39.1086H61.9486L60.8566 40.6686H61.647Z" fill="#246DCE"/>
<path d="M69.5178 43.2217C69.4034 42.2493 68.5974 41.3549 67.2455 41.3549C65.7531 41.3549 64.76 42.4469 64.76 44.1524C64.76 45.8944 65.7583 46.9499 67.2559 46.9499C68.483 46.9499 69.3878 46.1907 69.5282 45.1144H68.639C68.483 45.7644 67.9994 46.1543 67.2611 46.1543C66.3251 46.1543 65.6803 45.4108 65.6803 44.1524C65.6803 42.9253 66.3147 42.1505 67.2507 42.1505C68.0462 42.1505 68.5038 42.6341 68.6338 43.2217H69.5178Z" fill="#246DCE"/>
<path d="M75.3382 46.9499C76.1182 46.9499 76.7369 46.5651 77.0853 45.9412H77.1009V46.8563H77.9641V39.353H77.0593V42.3273H77.0385C76.7161 41.7345 76.0922 41.3549 75.3174 41.3549C73.9551 41.3549 73.0243 42.4573 73.0243 44.1524C73.0243 45.8476 73.9603 46.9499 75.3382 46.9499ZM75.5098 42.1505C76.4406 42.1505 77.0645 42.9461 77.0645 44.1524C77.0645 45.364 76.4406 46.1543 75.5098 46.1543C74.553 46.1543 73.9499 45.3796 73.9499 44.1524C73.9499 42.9305 74.553 42.1505 75.5098 42.1505Z" fill="#246DCE"/>
<path d="M81.3423 46.1803C80.6923 46.1803 80.2607 45.8424 80.2607 45.3276C80.2607 44.818 80.6767 44.4956 81.4047 44.4488L82.8502 44.3604V44.8024C82.8502 45.5824 82.1951 46.1803 81.3423 46.1803ZM81.1395 46.9499C81.8675 46.9499 82.5538 46.5443 82.8762 45.9256H82.897V46.8563H83.755V43.1177C83.755 42.0413 82.9542 41.3549 81.6855 41.3549C80.4063 41.3549 79.6056 42.0725 79.5432 43.0085H80.4167C80.5311 42.4781 80.9679 42.1505 81.6647 42.1505C82.4134 42.1505 82.8502 42.5457 82.8502 43.2061V43.6585L81.3007 43.7468C80.0527 43.8196 79.3404 44.402 79.3404 45.3276C79.3404 46.2999 80.0631 46.9499 81.1395 46.9499Z" fill="#246DCE"/>
<path d="M92.3261 43.2217C92.2117 42.2493 91.4057 41.3549 90.0538 41.3549C88.5615 41.3549 87.5683 42.4469 87.5683 44.1524C87.5683 45.8944 88.5667 46.9499 90.0642 46.9499C91.2913 46.9499 92.1961 46.1907 92.3365 45.1144H91.4473C91.2913 45.7644 90.8078 46.1543 90.0694 46.1543C89.1334 46.1543 88.4887 45.4108 88.4887 44.1524C88.4887 42.9253 89.123 42.1505 90.059 42.1505C90.8546 42.1505 91.3121 42.6341 91.4421 43.2217H92.3261Z" fill="#246DCE"/>
<path d="M97.9818 41.4485H97.077V44.6256C97.077 45.546 96.5467 46.1491 95.6679 46.1491C94.8307 46.1491 94.4199 45.676 94.4199 44.7972V41.4485H93.5152V44.9584C93.5152 46.1855 94.2067 46.9499 95.3871 46.9499C96.2191 46.9499 96.7806 46.6015 97.103 45.9776H97.1238V46.8563H97.9818V41.4485ZM96.0787 40.6686L94.9867 39.1086H94.0092L95.2883 40.6686H96.0787Z" fill="#246DCE"/>
<path d="M99.5297 46.8563H100.434V43.674C100.434 42.7589 100.991 42.1557 101.844 42.1557C102.676 42.1557 103.086 42.6341 103.086 43.5077V46.8563H103.991V43.3465C103.991 42.1193 103.305 41.3549 102.119 41.3549C101.282 41.3549 100.705 41.7293 100.403 42.3117H100.382V41.4485H99.5297V46.8563Z" fill="#246DCE"/>
<path d="M107.718 46.1023C106.787 46.1023 106.179 45.3432 106.179 44.1316C106.179 42.9201 106.787 42.1505 107.718 42.1505C108.659 42.1505 109.288 42.9409 109.288 44.1316C109.288 45.3224 108.659 46.1023 107.718 46.1023ZM107.749 48.8946C109.241 48.8946 110.193 48.0367 110.193 46.7471V41.4485H109.33V42.3585H109.314C108.955 41.7293 108.321 41.3549 107.556 41.3549C106.158 41.3549 105.253 42.4365 105.253 44.1316C105.253 45.8112 106.158 46.8979 107.536 46.8979C108.295 46.8979 108.934 46.5131 109.267 45.9256H109.288V46.7783C109.288 47.5843 108.721 48.1251 107.785 48.1251C107.109 48.1251 106.574 47.7975 106.397 47.3035H105.466C105.617 48.2239 106.558 48.8946 107.749 48.8946Z" fill="#246DCE"/>
<path d="M116.991 46.9499C118.374 46.9499 119.289 45.8528 119.289 44.1524C119.289 42.4573 118.369 41.3549 117.006 41.3549C116.242 41.3549 115.613 41.7345 115.275 42.3533H115.254V39.353H114.349V46.8563H115.212V45.9412H115.233C115.582 46.5651 116.2 46.9499 116.991 46.9499ZM116.814 42.1505C117.771 42.1505 118.363 42.9253 118.363 44.1524C118.363 45.39 117.771 46.1543 116.814 46.1543C115.899 46.1543 115.249 45.3588 115.249 44.1524C115.249 42.9513 115.899 42.1505 116.814 42.1505Z" fill="#246DCE"/>
<path d="M122.366 46.1803C121.716 46.1803 121.284 45.8424 121.284 45.3276C121.284 44.818 121.7 44.4956 122.428 44.4488L123.874 44.3604V44.8024C123.874 45.5824 123.218 46.1803 122.366 46.1803ZM122.163 46.9499C122.891 46.9499 123.577 46.5443 123.9 45.9256H123.92V46.8563H124.778V43.1177C124.778 42.0413 123.978 41.3549 122.709 41.3549C121.43 41.3549 120.629 42.0725 120.567 43.0085H121.44C121.554 42.4781 121.991 42.1505 122.688 42.1505C123.437 42.1505 123.874 42.5457 123.874 43.2061V43.6585L122.324 43.7468C121.076 43.8196 120.364 44.402 120.364 45.3276C120.364 46.2999 121.086 46.9499 122.163 46.9499ZM122.574 48.879C122.922 48.879 123.203 48.5982 123.203 48.2499C123.203 47.9015 122.922 47.6207 122.574 47.6207C122.225 47.6207 121.944 47.9015 121.944 48.2499C121.944 48.5982 122.225 48.879 122.574 48.879Z" fill="#246DCE"/>
<path d="M126.3 46.8563H127.205V43.674C127.205 42.7589 127.761 42.1557 128.614 42.1557C129.446 42.1557 129.857 42.6341 129.857 43.5077V46.8563H130.762V43.3465C130.762 42.1193 130.075 41.3549 128.89 41.3549C128.053 41.3549 127.475 41.7293 127.174 42.3117H127.153V41.4485H126.3V46.8563Z" fill="#246DCE"/>
</svg>
