<svg width="24" height="24" viewBox="0 0 24 24" fill="none" xmlns="http://www.w3.org/2000/svg">
<path d="M14.6659 17.8333C14.8209 17.8342 14.9744 17.8043 15.1176 17.7452C15.2609 17.6861 15.3909 17.5991 15.5001 17.4892L17.0809 15.9083C17.1896 15.799 17.2506 15.6512 17.2506 15.4971C17.2506 15.343 17.1896 15.1951 17.0809 15.0858L14.7476 12.7525C14.6383 12.6439 14.4905 12.5829 14.3364 12.5829C14.1822 12.5829 14.0344 12.6439 13.9251 12.7525L12.9918 13.68C12.3456 13.5077 11.7471 13.1905 11.2418 12.7525C10.8049 12.2464 10.4879 11.6482 10.3143 11.0025L11.2418 10.0692C11.3504 9.95988 11.4114 9.81203 11.4114 9.65792C11.4114 9.50381 11.3504 9.35597 11.2418 9.24667L8.90843 6.91334C8.79914 6.80469 8.65129 6.74371 8.49718 6.74371C8.34308 6.74371 8.19523 6.80469 8.08593 6.91334L6.51093 8.50001C6.40105 8.60923 6.31403 8.73925 6.25494 8.88247C6.19585 9.02569 6.16587 9.17924 6.16677 9.33417C6.21969 11.5755 7.11531 13.7146 8.6751 15.325C10.2855 16.8848 12.4246 17.7804 14.6659 17.8333V17.8333ZM8.5001 8.15584L10.0109 9.66667L9.25843 10.4192C9.18716 10.4859 9.13379 10.5695 9.10322 10.6623C9.07264 10.755 9.06584 10.8539 9.08343 10.95C9.30147 11.9244 9.76308 12.8276 10.4251 13.575C11.172 14.2379 12.0754 14.6996 13.0501 14.9167C13.1447 14.9365 13.2427 14.9324 13.3354 14.9049C13.4281 14.8774 13.5124 14.8273 13.5809 14.7592L14.3334 13.9892L15.8443 15.5L14.6776 16.6667C12.7431 16.6169 10.8973 15.8448 9.50343 14.5025C8.15763 13.1081 7.38337 11.2598 7.33343 9.32251L8.5001 8.15584ZM16.6668 11.4167H17.8334C17.8486 10.7231 17.7231 10.0336 17.4646 9.38983C17.2061 8.74603 16.82 8.16123 16.3294 7.67068C15.8389 7.18012 15.2541 6.79397 14.6103 6.53549C13.9665 6.277 13.277 6.15155 12.5834 6.16667V7.33334C13.1247 7.31462 13.6641 7.40743 14.1679 7.60601C14.6718 7.80459 15.1295 8.10469 15.5124 8.48766C15.8954 8.87063 16.1955 9.32828 16.3941 9.83217C16.5927 10.3361 16.6855 10.8754 16.6668 11.4167Z" fill="white"/>
<path d="M12.5833 9.66667C13.8083 9.66667 14.3333 10.1917 14.3333 11.4167H15.4999C15.4999 9.53833 14.4616 8.5 12.5833 8.5V9.66667Z" fill="white"/>
<circle cx="12" cy="12" r="11.5" stroke="white"/>
</svg>
