<svg width="44" height="44" viewBox="0 0 44 44" fill="none" xmlns="http://www.w3.org/2000/svg">
<circle cx="22" cy="22" r="22" fill="#DFDFDF"/>
<path d="M13.5934 26.8778V26.8777C13.5935 26.7846 13.6134 26.6926 13.6518 26.6078C13.6902 26.5233 13.746 26.4479 13.8156 26.3865C14.3355 25.9147 14.7902 25.3756 15.1676 24.7836C15.5851 23.9658 15.8356 23.073 15.9045 22.1574L15.9045 19.4169C15.9045 19.4168 15.9045 19.4168 15.9045 19.4168V19.4167H16.0045C16.0015 17.9642 16.5251 16.56 17.4781 15.464C18.4311 14.3679 19.7491 13.6544 21.1878 13.4556L13.5934 26.8778ZM13.5934 26.8778V27.6333C13.5934 27.8072 13.6624 27.9739 13.7854 28.0969C13.9083 28.2198 14.0751 28.2889 14.2489 28.2889H29.6934C29.8672 28.2889 30.034 28.2198 30.1569 28.0969C30.2799 27.9739 30.3489 27.8072 30.3489 27.6333V26.8778V26.8777C30.3488 26.7846 30.3289 26.6926 30.2904 26.6078C30.252 26.5231 30.1961 26.4476 30.1263 26.3862C29.5986 25.9158 29.1365 25.3766 28.7523 24.7833M13.5934 26.8778L28.7523 24.7833M28.0156 19.4169C28.0193 17.929 27.4796 16.4909 26.4978 15.3729C25.5354 14.2769 24.2132 13.5625 22.7711 13.3571V12.7278C22.7711 12.5046 22.6825 12.2905 22.5246 12.1326C22.3668 11.9748 22.1527 11.8861 21.9295 11.8861C21.7062 11.8861 21.4922 11.9748 21.3343 12.1326C21.1765 12.2905 21.0878 12.5046 21.0878 12.7278V13.3691L27.9156 19.4167M28.0156 19.4169L27.9156 19.4167M28.0156 19.4169V19.4167H27.9156M28.0156 19.4169V22.1574M27.9156 19.4167V22.1611M28.0156 22.1574C28.0155 22.1561 28.0154 22.1549 28.0153 22.1537L27.9156 22.1611M28.0156 22.1574C28.0844 23.0729 28.3349 23.9656 28.7523 24.7833M28.0156 22.1574V22.1611H27.9156M27.9156 22.1611L28.7523 24.7833M27.6588 25.4645C28.0032 26.0102 28.4046 26.5175 28.8562 26.9778H15.0916C15.5432 26.5175 15.9447 26.0102 16.289 25.4645L16.2893 25.4646L16.2927 25.4582C16.8354 24.4407 17.152 23.3181 17.221 22.1671L17.2211 22.1671V22.1611V19.4167H17.2212L17.2211 19.4133C17.1995 18.7756 17.3065 18.1401 17.5356 17.5446C17.7647 16.9491 18.1114 16.4059 18.5548 15.9471C18.9983 15.4884 19.5296 15.1236 20.117 14.8744C20.7043 14.6253 21.3359 14.4969 21.9739 14.4969C22.612 14.4969 23.2435 14.6253 23.8309 14.8744C24.4183 15.1236 24.9495 15.4884 25.393 15.9471C25.8365 16.4059 26.1831 16.9491 26.4122 17.5446C26.6414 18.1401 26.7483 18.7756 26.7268 19.4133L26.7267 19.4133V19.4167V22.1611H26.7265L26.7269 22.1671C26.7958 23.3181 27.1125 24.4407 27.6551 25.4582L27.6549 25.4583L27.6588 25.4645Z" fill="#838383" stroke="#838383" stroke-width="0.2"/>
<path d="M23.5329 28.7924L23.5498 28.6778H23.4339H20.5117H20.3959L20.4128 28.7924C20.4688 29.1721 20.6609 29.5185 20.9532 29.7672C21.2455 30.0159 21.6183 30.15 22.0021 30.1444L22.0006 30.0444L22.0029 30.1444C22.3765 30.1358 22.7349 29.9954 23.0149 29.7479C23.2949 29.5005 23.4784 29.162 23.5329 28.7924Z" fill="#838383" stroke="#838383" stroke-width="0.2"/>
</svg>
