<svg width="41" height="42" viewBox="0 0 41 42" fill="none" xmlns="http://www.w3.org/2000/svg">
<rect width="41" height="42" rx="2" fill="#246DCE"/>
<path d="M19.3333 25.6667C20.9604 25.6663 22.5406 25.1216 23.8223 24.1193L27.8519 28.149L29.1481 26.8528L25.1184 22.8232C26.1213 21.5414 26.6663 19.9608 26.6667 18.3333C26.6667 14.2899 23.3768 11 19.3333 11C15.2899 11 12 14.2899 12 18.3333C12 22.3767 15.2899 25.6667 19.3333 25.6667ZM19.3333 12.8333C22.3666 12.8333 24.8333 15.3001 24.8333 18.3333C24.8333 21.3666 22.3666 23.8333 19.3333 23.8333C16.3001 23.8333 13.8333 21.3666 13.8333 18.3333C13.8333 15.3001 16.3001 12.8333 19.3333 12.8333Z" fill="white"/>
</svg>
