<svg width="20" height="20" viewBox="0 0 20 20" fill="none" xmlns="http://www.w3.org/2000/svg">
<circle cx="10" cy="10" r="10" fill="#194C90"/>
<path d="M14.6077 12.9769C14.3568 12.3594 13.9928 11.7985 13.5359 11.3255C13.0803 10.8511 12.5407 10.4729 11.9468 10.2117C11.9415 10.2089 11.9362 10.2075 11.9308 10.2048C12.7593 9.58291 13.2979 8.56997 13.2979 7.42714C13.2979 5.53392 11.8218 4 10 4C8.1782 4 6.70215 5.53392 6.70215 7.42714C6.70215 8.56997 7.24071 9.58291 8.06916 10.2062C8.06384 10.2089 8.05852 10.2103 8.0532 10.2131C7.45746 10.4742 6.92289 10.8487 6.46412 11.3269C6.00762 11.8003 5.64365 12.3611 5.39232 12.9783C5.14541 13.5825 5.01224 14.2303 5.00003 14.8867C4.99968 14.9014 5.00217 14.9161 5.00735 14.9298C5.01254 14.9436 5.02032 14.9561 5.03024 14.9666C5.04015 14.9772 5.052 14.9856 5.06508 14.9913C5.07816 14.9971 5.09222 15 5.10642 15H5.90428C5.96279 15 6.00934 14.9516 6.01066 14.8922C6.03726 13.8254 6.44949 12.8263 7.17821 12.069C7.93219 11.2854 8.93352 10.8543 10 10.8543C11.0665 10.8543 12.0678 11.2854 12.8218 12.069C13.5505 12.8263 13.9627 13.8254 13.9893 14.8922C13.9907 14.953 14.0372 15 14.0957 15H14.8936C14.9078 15 14.9218 14.9971 14.9349 14.9913C14.948 14.9856 14.9599 14.9772 14.9698 14.9666C14.9797 14.9561 14.9875 14.9436 14.9926 14.9298C14.9978 14.9161 15.0003 14.9014 15 14.8867C14.9867 14.2261 14.855 13.5835 14.6077 12.9769ZM10 9.80402C9.38963 9.80402 8.81517 9.55666 8.38299 9.10754C7.95081 8.65842 7.71278 8.06143 7.71278 7.42714C7.71278 6.79284 7.95081 6.19585 8.38299 5.74673C8.81517 5.29761 9.38963 5.05025 10 5.05025C10.6104 5.05025 11.1848 5.29761 11.617 5.74673C12.0492 6.19585 12.2872 6.79284 12.2872 7.42714C12.2872 8.06143 12.0492 8.65842 11.617 9.10754C11.1848 9.55666 10.6104 9.80402 10 9.80402Z" fill="white"/>
</svg>
